PathFileType	4	(X/Y/Z)	9_coords_data.trc
DataRate	CameraRate	NumFrames	NumMarkers	Units	OrigDataRate	OrigDataStartFrame	OrigNumFrames
30.0	30.0	6	21	m	30.0	1	47
Frame#	Time	THUMB_TIP	THUMB_IP	THUMB_MCP	THUMB_CMC	INDEX_TIP	INDEX_DIP	INDEX_PIP	INDEX_MCP	MIDDLE_TIP	MIDDLE_DIP	MIDDLE_PIP	MIDDLE_MCP	RING_TIP	RING_DIP	RING_PIP	RING_MCP	PINKY_TIP	PINKY_DIP	PINKY_PIP	PINKY_MCP	WRIST
X1	Y1	Z1	X2	Y2	Z2	X3	Y3	Z3	X4	Y4	Z4	X5	Y5	Z5	X6	Y6	Z6	X7	Y7	Z7	X8	Y8	Z8	X9	Y9	Z9	X10	Y10	Z10	X11	Y11	Z11	X12	Y12	Z12	X13	Y13	Z13	X14	Y14	Z14	X15	Y15	Z15	X16	Y16	Z16	X17	Y17	Z17	X18	Y18	Z18	X19	Y19	Z19	X20	Y20	Z20	X21	Y21	Z21
0	-2.749317978547796e-18	0.4743255190511307	-0.021987948713750538	-0.16541902645845663	0.48030960887042357	-0.021227368304269634	-0.1432466971609888	0.478090593706053	-0.02862245615347392	-0.11309361029740472	0.48489578735096645	-0.02181201681245959	-0.06953678241201344	0.5295190455819667	-0.017540875925415644	-0.09880166547467972	0.5374488064290314	-0.005989930536909882	-0.11027749021803124	0.5380463114304946	0.012680722024254742	-0.1271018640165863	0.49585953851363745	0.012005871790195966	-0.12131767331925292	0.5155844923765336	-0.015876600418259113	-0.08400476910193977	0.5316761450917593	-0.008523441335854809	-0.08787643081255214	0.5436303219833174	0.013086200739391707	-0.10335320612994559	0.5006888774658306	0.0252682089610079	-0.10529715557375141	0.5123152183484923	-0.006826909244646573	-0.07461372176765257	0.5291479273886353	-0.0007063296911135053	-0.07666272452479195	0.5420074823960619	0.019210654374710034	-0.08428673723023117	0.5049532212151691	0.03521452886215637	-0.0866486355617111	0.5176857249977003	-0.004911457742416525	-0.06607153373047048	0.533262755377639	0.0019817482577907386	-0.0643863525588545	0.5392065566367297	0.02211777069470333	-0.06454077410071357	0.5057506648910091	0.03556407294049724	-0.06365549763915634	0.4622830810018609	-0.023011742144276925	-0.051989820119430985
1	0.03333333333333339	0.4763898664507282	-0.021165794348958822	-0.16687143127824478	0.48225158000681145	-0.020307976297552766	-0.1446699794703763	0.4799728715853503	-0.027575840289430498	-0.11449042279825916	0.4842766140561701	-0.022825469337033	-0.0703451877602681	0.5280915995276797	-0.017108269129503473	-0.09902569018846297	0.5366249661247462	-0.005912056866646087	-0.11041983278389822	0.537383341051753	0.012680353251382837	-0.12732418093675835	0.49518457386594206	0.01203792473462617	-0.12162440659047102	0.5147396644212264	-0.015698051941048008	-0.08443611785729088	0.5307722912018862	-0.008211113559266847	-0.08829625155698084	0.5426036655654343	0.013435373565389042	-0.10381584323433124	0.4997047184102777	0.025803049277166923	-0.10550961165633754	0.5116775773601404	-0.005756565858843543	-0.07495232587936074	0.5284703986205207	0.0005471697177517054	-0.07675900014366277	0.5412992547893506	0.02038316385470429	-0.08464149752699601	0.504008563237864	0.03587337446180361	-0.08668564354907882	0.5162646689495564	-0.004496407289577009	-0.06508522600127109	0.5318094950777554	0.0024903659609248896	-0.0634904281488371	0.5383684316714045	0.0224282732608998	-0.06401217737796638	0.5050101297914633	0.03613439445960487	-0.06351278937938665	0.46228308100186083	-0.023011742144276925	-0.051989820119430985
2	0.06666666666666676	0.47794044623592974	-0.020566821064696428	-0.16784281102203047	0.4836950291936643	-0.019643021985414566	-0.14561599455534613	0.481348466151574	-0.026826356470589396	-0.11542140319259386	0.48371468260420336	-0.023675454072777824	-0.07098760036435536	0.5270027609963557	-0.016740504519423438	-0.09921585061914229	0.5360170198701959	-0.005840296572336423	-0.11052640337599962	0.5368831640859021	0.012699382688428518	-0.12748340547264292	0.4946757771467891	0.012070250233279456	-0.12184631631902176	0.5140987482280037	-0.015564036352802013	-0.08474222407962506	0.5300776866227106	-0.00796271608538901	-0.08860142839792362	0.541806953109925	0.0137209272184734	-0.1041466357218156	0.4989394356094728	0.0262206976719912	-0.10565647112933241	0.5111698683580806	-0.004952939295628012	-0.07521788165182908	0.5279223117778686	0.0015110211373495774	-0.07682189380505655	0.5407249485997789	0.02128879220136437	-0.08489110945130651	0.5032617670417221	0.03638709222332259	-0.08670003122822378	0.5152045916652037	-0.004173978890390173	-0.0643346102462874	0.5307196383378693	0.002894215830138158	-0.06281015948036983	0.5377094547658221	0.022676568624824145	-0.06359310469563395	0.504427392320036	0.036574310615908545	-0.06339176442630845	0.4622830810018609	-0.023011742144276925	-0.051989820119430985
3	0.10000000000000014	0.47905922631466286	-0.020141915108048525	-0.1684624268051057	0.4847202071876936	-0.01917939209246544	-0.14621322805549541	0.48229872156107045	-0.026316899221787482	-0.11601368502353993	0.4832554910430066	-0.024330293801572145	-0.07146003207495655	0.5262262259392513	-0.016445432680532224	-0.099366142375936	0.5356032582990089	-0.005774641310955064	-0.11060026342170615	0.5365328510184646	0.012734532199376813	-0.12758720506346033	0.4943196444520803	0.012102497286976432	-0.12199419002206391	0.5136508904897776	-0.015471450015343002	-0.08494170171217974	0.5295827484343121	-0.0077759855227789165	-0.0888089654320291	0.5412298715169603	0.013944345652206258	-0.10436471316547513	0.4983834426885354	0.02653077414351601	-0.10574792518243581	0.510795401818112	-0.0043857417222867845	-0.07540946376614155	0.5275101716305167	0.0022116045839137843	-0.07685566286529455	0.540291253245949	0.021951450246158855	-0.08505093131546826	0.5027078479994502	0.03676688516087434	-0.08669755585229655	0.5144566847556138	-0.0039389483771322675	-0.06378966131594666	0.529945128871943	0.003198022843537207	-0.06231597863277494	0.5372206511084833	0.022869272038031796	-0.06327553598578173	0.5039929845045497	0.036898004494502756	-0.0632925278248272	0.46228308100186083	-0.023011742144276925	-0.051989820119430985
4	0.13333333333333353	0.47983805056595485	-0.019841456990458806	-0.16882954693838192	0.4854171178617977	-0.018863365014335165	-0.14656034524198747	0.4829148047886306	-0.02598868392669862	-0.11636451341570764	0.48292719296370645	-0.024780360090854048	-0.07177270026530025	0.5257281325434279	-0.016225636732126514	-0.09947424762771351	0.5353591054240914	-0.005715916164693469	-0.11064519812292173	0.5363157966452001	0.01278169224489678	-0.12764322912750892	0.49409901515485427	0.012133708138414079	-0.122079096563116	0.5133776729228385	-0.015415695983372002	-0.08505232132796015	0.5292699186339287	-0.007646272660839615	-0.08893466436968456	0.540853629159071	0.014109466715698016	-0.10448828146185574	0.49801908425691954	0.026744536086578674	-0.10579392537142973	0.5105478612470662	-0.004022730176129974	-0.07553044416803667	0.5272301999484199	0.002679378750057304	-0.07686510194995755	0.5399942380702903	0.022398773835328845	-0.08513581940942905	0.502333262128545	0.03702672640712734	-0.08668331049906608	0.5139757871384532	-0.003781559594223216	-0.06342180355658289	0.5294412801953621	0.003411603437870503	-0.06198064773557621	0.5368872694887346	0.02301330624931308	-0.06304953001855595	0.5036931508469598	0.03712028191312078	-0.06321438212356134	0.4622830810018609	-0.023011742144276925	-0.051989820119430985
5	0.1666666666666669	0.48035768624220654	-0.019627900552622757	-0.16901544200053054	0.4858645974580732	-0.01865322053311358	-0.14672813781810123	0.4832767210098955	-0.02579413892402227	-0.11654320482126734	0.48273725844428284	-0.02503611969864139	-0.07194472517235717	0.5254696360067181	-0.016079208326000072	-0.09954119733834266	0.5352578075827064	-0.005665571705514738	-0.11066539931131625	0.5362126670607652	0.012836158135270948	-0.1276590472209247	0.4939940075776934	0.012162482502944938	-0.12211224214098504	0.5132549218527345	-0.015391320266582187	-0.08509094879789236	0.5291154788099767	-0.007567311822078371	-0.08899320774194097	0.5406528623045292	0.014221742851799113	-0.10453461786195306	0.4978224058146376	0.026874356077494332	-0.10580398637758037	0.5104137163537663	-0.003831047923803732	-0.07558792607944198	0.5270704019039276	0.0029475343790339448	-0.07685506792103203	0.5398215425554331	0.02266091496982292	-0.08515994701516882	0.5021175816669159	0.037182520772500394	-0.08666165678366933	0.513718855709314	-0.0036899890173390792	-0.06320333273994805	0.5291652450491343	0.0035473429334414996	-0.06177852306953713	0.5366901279861162	0.023115738668583297	-0.06290370933749634	0.5035108406953585	0.03725627273045218	-0.06315598363760744	0.4622830810018609	-0.023011742144276925	-0.051989820119430985
